<svg xmlns="http://www.w3.org/2000/svg" width="13.169" height="12.156" viewBox="0 0 13.169 12.156">
  <g id="Icon_ionic-ios-calendar" data-name="Icon ionic-ios-calendar" transform="translate(-3.375 -4.5)">
    <path id="Path_2874" data-name="Path 2874" d="M15.278,6.75H14.011v.76a.254.254,0,0,1-.253.253h-.506A.254.254,0,0,1,13,7.51V6.75H6.92v.76a.254.254,0,0,1-.253.253H6.161a.254.254,0,0,1-.253-.253V6.75H4.641A1.27,1.27,0,0,0,3.375,8.016v8.61a1.27,1.27,0,0,0,1.266,1.266H15.278a1.27,1.27,0,0,0,1.266-1.266V8.016A1.27,1.27,0,0,0,15.278,6.75Zm.253,9.5a.635.635,0,0,1-.633.633H5.021a.635.635,0,0,1-.633-.633v-5.7a.254.254,0,0,1,.253-.253H15.278a.254.254,0,0,1,.253.253Z" transform="translate(0 -1.237)" fill="#929baf"/>
    <path id="Path_2875" data-name="Path 2875" d="M10.013,4.753A.254.254,0,0,0,9.76,4.5H9.253A.254.254,0,0,0,9,4.753v.76h1.013Z" transform="translate(-3.093)" fill="#929baf"/>
    <path id="Path_2876" data-name="Path 2876" d="M25.763,4.753A.254.254,0,0,0,25.51,4.5H25a.254.254,0,0,0-.253.253v.76h1.013Z" transform="translate(-11.752)" fill="#929baf"/>
  </g>
</svg>
