<svg xmlns="http://www.w3.org/2000/svg" width="7.379" height="8.433" viewBox="0 0 7.379 8.433">
  <path id="Icon_awesome-building" data-name="Icon awesome-building" d="M7.181,7.906H6.852V.4a.4.4,0,0,0-.4-.4H.922a.4.4,0,0,0-.4.4v7.51H.2a.2.2,0,0,0-.2.2v.329H7.379V8.1A.2.2,0,0,0,7.181,7.906ZM2.108,1.252a.2.2,0,0,1,.2-.2h.659a.2.2,0,0,1,.2.2v.659a.2.2,0,0,1-.2.2H2.306a.2.2,0,0,1-.2-.2Zm0,1.581a.2.2,0,0,1,.2-.2h.659a.2.2,0,0,1,.2.2v.659a.2.2,0,0,1-.2.2H2.306a.2.2,0,0,1-.2-.2Zm.856,2.438H2.306a.2.2,0,0,1-.2-.2V4.414a.2.2,0,0,1,.2-.2h.659a.2.2,0,0,1,.2.2v.659A.2.2,0,0,1,2.965,5.271ZM4.216,7.906H3.162V6.522a.2.2,0,0,1,.2-.2h.659a.2.2,0,0,1,.2.2ZM5.271,5.073a.2.2,0,0,1-.2.2H4.414a.2.2,0,0,1-.2-.2V4.414a.2.2,0,0,1,.2-.2h.659a.2.2,0,0,1,.2.2Zm0-1.581a.2.2,0,0,1-.2.2H4.414a.2.2,0,0,1-.2-.2V2.833a.2.2,0,0,1,.2-.2h.659a.2.2,0,0,1,.2.2Zm0-1.581a.2.2,0,0,1-.2.2H4.414a.2.2,0,0,1-.2-.2V1.252a.2.2,0,0,1,.2-.2h.659a.2.2,0,0,1,.2.2Z" fill="#fff"/>
</svg>
