<svg id="calendar-check" xmlns="http://www.w3.org/2000/svg" width="18.001" height="18.001" viewBox="0 0 18.001 18.001">
  <path id="Path_2988" data-name="Path 2988" d="M18.4,15.913a.563.563,0,0,1,0,.8l-3.375,3.375a.563.563,0,0,1-.8,0L12.538,18.4a.563.563,0,1,1,.8-.8l1.29,1.291L17.6,15.913a.563.563,0,0,1,.8,0Z" transform="translate(-6.186 -7.873)" fill="#6c727b" fill-rule="evenodd"/>
  <path id="Path_2989" data-name="Path 2989" d="M1.125,5.625V16.876A1.125,1.125,0,0,0,2.25,18h13.5a1.125,1.125,0,0,0,1.125-1.125V5.625ZM2.25,2.25A2.25,2.25,0,0,0,0,4.5V16.876a2.25,2.25,0,0,0,2.25,2.25h13.5A2.25,2.25,0,0,0,18,16.876V4.5a2.25,2.25,0,0,0-2.25-2.25Z" transform="translate(0 -1.125)" fill="#6c727b" fill-rule="evenodd"/>
  <path id="Path_2990" data-name="Path 2990" d="M7.313,0a.563.563,0,0,1,.563.563v.563a.563.563,0,0,1-1.125,0V.563A.563.563,0,0,1,7.313,0ZM17.438,0A.563.563,0,0,1,18,.563v.563a.563.563,0,0,1-1.125,0V.563A.563.563,0,0,1,17.438,0Z" transform="translate(-3.375)" fill="#6c727b" fill-rule="evenodd"/>
</svg>
