<svg id="Group_197" data-name="Group 197" xmlns="http://www.w3.org/2000/svg" width="51.048" height="48.861" viewBox="0 0 51.048 48.861">
  <path id="Path_2902" data-name="Path 2902" d="M247.132,98.5l-1.562.874-19.245,10.765-1.562.874a3.389,3.389,0,0,0-1.3,4.533l14.331,26.929a3.221,3.221,0,0,0,4.422,1.333l0,0,22.361-12.508,0,0a3.389,3.389,0,0,0,1.3-4.533L251.554,99.829A3.221,3.221,0,0,0,247.132,98.5Z" transform="translate(-223.065 -98.089)" fill="#f2f2f2"/>
  <path id="Path_2903" data-name="Path 2903" d="M260.495,112.23l-1.85,1.035-18.669,10.443-1.85,1.035a2.413,2.413,0,0,0-.926,3.228L251.531,154.9a2.294,2.294,0,0,0,3.149.949l0,0,22.361-12.508,0,0a2.413,2.413,0,0,0,.926-3.228l-14.331-26.929A2.294,2.294,0,0,0,260.495,112.23Z" transform="translate(-235.979 -110.978)" fill="#fff"/>
  <path id="Path_2904" data-name="Path 2904" d="M463.793,222.516l-8.34,4.665a.536.536,0,0,1-.736-.222.564.564,0,0,1,.216-.755l8.34-4.665a.536.536,0,0,1,.736.222A.564.564,0,0,1,463.793,222.516Z" transform="translate(-438.969 -212.905)" fill="#f2f2f2"/>
  <path id="Path_2905" data-name="Path 2905" d="M478.713,230.425l-10.3,5.764a.536.536,0,0,1-.736-.222.564.564,0,0,1,.216-.755l10.3-5.764a.536.536,0,0,1,.736.222A.564.564,0,0,1,478.713,230.425Z" transform="translate(-451.047 -220.266)" fill="#f2f2f2"/>
  <path id="Path_2906" data-name="Path 2906" d="M308.148,275.311l-7.689,4.3a.27.27,0,0,0-.1.362l3.274,6.152a.257.257,0,0,0,.353.106l7.689-4.3a.27.27,0,0,0,.1-.362l-3.274-6.152A.257.257,0,0,0,308.148,275.311Z" transform="translate(-295.092 -262.978)" fill="#f2f2f2"/>
  <path id="Path_2907" data-name="Path 2907" d="M483.984,334.957l-11.312,6.328a.536.536,0,0,1-.736-.222.564.564,0,0,1,.216-.755l11.312-6.328a.536.536,0,0,1,.736.222A.564.564,0,0,1,483.984,334.957Z" transform="translate(-455.021 -317.54)" fill="#f2f2f2"/>
  <path id="Path_2908" data-name="Path 2908" d="M498.9,342.866l-13.277,7.427a.536.536,0,0,1-.736-.222.564.564,0,0,1,.216-.755l13.277-7.427a.536.536,0,0,1,.736.222A.564.564,0,0,1,498.9,342.866Z" transform="translate(-467.099 -324.901)" fill="#f2f2f2"/>
  <ellipse id="Ellipse_260" data-name="Ellipse 260" cx="2.302" cy="2.36" rx="2.302" ry="2.36" transform="translate(11.04 24.205)" fill="#f2f2f2"/>
  <path id="Path_2909" data-name="Path 2909" d="M533.11,263.788H507.628a3.3,3.3,0,0,0-3.259,3.341v30.676a3.3,3.3,0,0,0,3.259,3.341H533.11a3.3,3.3,0,0,0,3.259-3.341V267.129A3.3,3.3,0,0,0,533.11,263.788Z" transform="translate(-485.321 -252.285)" fill="#e6e6e6"/>
  <path id="Path_2910" data-name="Path 2910" d="M546.026,277.642H520.544a2.353,2.353,0,0,0-2.321,2.379V310.7a2.353,2.353,0,0,0,2.321,2.379h25.482a2.353,2.353,0,0,0,2.321-2.379V280.022A2.353,2.353,0,0,0,546.026,277.642Z" transform="translate(-498.236 -265.177)" fill="#fff"/>
  <path id="Path_2911" data-name="Path 2911" d="M736.871,370.6h-9.5a.557.557,0,0,1,0-1.113h9.5a.557.557,0,0,1,0,1.113Z" transform="translate(-692.715 -350.648)" fill="#ff543e"/>
  <path id="Path_2912" data-name="Path 2912" d="M739.109,397.65H727.37a.557.557,0,0,1,0-1.113h11.739a.557.557,0,0,1,0,1.113Z" transform="translate(-692.715 -375.818)" fill="#ff543e"/>
  <path id="Path_2913" data-name="Path 2913" d="M579.621,336.711h-8.759a.263.263,0,0,0-.26.267v7.008a.263.263,0,0,0,.26.267h8.759a.263.263,0,0,0,.26-.267v-7.008a.263.263,0,0,0-.26-.267Z" transform="translate(-547.069 -320.145)" fill="#e6e6e6"/>
  <path id="Path_2914" data-name="Path 2914" d="M568.127,397.353a2.4,2.4,0,0,1-.6,1.6,1.654,1.654,0,0,1-1.529.6,1.106,1.106,0,0,1-.907-1.158.863.863,0,0,1,.343-.631.82.82,0,0,1,.691-.139.735.735,0,0,1,.284,1.227c-.1.084-.245-.063-.144-.147a.527.527,0,0,0-.143-.862.639.639,0,0,0-.83.578.905.905,0,0,0,.772.935,1.443,1.443,0,0,0,1.281-.507,2.179,2.179,0,0,0,.574-1.5.1.1,0,0,1,.2,0Z" transform="translate(-541.931 -376.483)" fill="#2f2e41"/>
  <ellipse id="Ellipse_261" data-name="Ellipse 261" cx="3.624" cy="3.715" rx="3.624" ry="3.715" transform="translate(24.556 14.762)" fill="#ff543e"/>
  <path id="Path_2915" data-name="Path 2915" d="M636.428,355.406l0-.139a1.1,1.1,0,0,0,.641-.148.43.43,0,0,0,.161-.314.247.247,0,0,0-.078-.2.4.4,0,0,0-.419,0l-.112.053.215-1.61.134.019-.183,1.369a.469.469,0,0,1,.452.067.384.384,0,0,1,.126.312.569.569,0,0,1-.217.422A1.222,1.222,0,0,1,636.428,355.406Z" transform="translate(-608.434 -335.343)" fill="#2f2e41"/>
  <rect id="Rectangle_1581" data-name="Rectangle 1581" width="0.729" height="0.139" transform="translate(29.196 17.836)" fill="#2f2e41"/>
  <rect id="Rectangle_1582" data-name="Rectangle 1582" width="0.729" height="0.139" transform="translate(26.894 17.836)" fill="#2f2e41"/>
  <path id="Path_2916" data-name="Path 2916" d="M609.572,429.269a3.548,3.548,0,0,1,.873-.412.609.609,0,0,1,0-.327.64.64,0,0,1,.618-.46h.883a.642.642,0,0,1,.62.461.607.607,0,0,1,0,.326,3.558,3.558,0,0,1,.873.412Z" transform="translate(-583.4 -405.162)" fill="#2f2e41"/>
  <path id="Path_2917" data-name="Path 2917" d="M682.455,340.836a.787.787,0,0,0-.239-.2.555.555,0,0,0-.261-.066.585.585,0,0,0-.346.119,1.407,1.407,0,0,0-.467,1.13,1.2,1.2,0,0,0,.691,1.236.544.544,0,0,0,.121.014c.448,0,.813-.56.813-1.25A1.56,1.56,0,0,0,682.455,340.836Z" transform="translate(-650.124 -323.737)" fill="#3f3d56"/>
  <path id="Path_2918" data-name="Path 2918" d="M575.257,340.66h0a.571.571,0,0,0-.3-.09.555.555,0,0,0-.261.066.787.787,0,0,0-.239.2h0a1.564,1.564,0,0,0-.312.984,1.344,1.344,0,0,0,.534,1.174.567.567,0,0,0,.279.076.508.508,0,0,0,.065,0h0c.417-.051.747-.59.747-1.245A1.367,1.367,0,0,0,575.257,340.66Z" transform="translate(-550.369 -323.737)" fill="#3f3d56"/>
  <path id="Path_2919" data-name="Path 2919" d="M578.45,297.327a.1.1,0,0,0,.083-.043.106.106,0,0,0,.014-.094,4.124,4.124,0,0,1,1.293-4.476,3.883,3.883,0,0,1,4.546-.272,4.1,4.1,0,0,1,1.792,4.292.1.1,0,0,0,.078.123.1.1,0,0,0,.12-.08,4.314,4.314,0,0,0-1.884-4.512,4.082,4.082,0,0,0-4.779.286,4.335,4.335,0,0,0-1.359,4.706A.1.1,0,0,0,578.45,297.327Z" transform="translate(-554.093 -278.19)" fill="#3f3d56"/>
  <path id="Path_2920" data-name="Path 2920" d="M622.719,328.974a.53.53,0,0,1-.078.645.835.835,0,0,1-.783.2,2.069,2.069,0,0,0-.939-.095c-.264.084-.452.33-.726.391a.5.5,0,0,1-.619-.283c-.041-.128.155-.182.2-.055.055.172.293.168.429.121.219-.076.387-.262.6-.35a1.286,1.286,0,0,1,.786,0,1.246,1.246,0,0,0,.765.034.358.358,0,0,0,.193-.5C622.466,328.971,622.642,328.867,622.719,328.974Z" transform="translate(-592.718 -312.904)" fill="#2f2e41"/>
  <path id="Path_2921" data-name="Path 2921" d="M690.045,498.576H677.159a.557.557,0,0,1,0-1.113h12.886a.557.557,0,0,1,0,1.113Z" transform="translate(-645.904 -469.738)" fill="#e6e6e6"/>
  <path id="Path_2922" data-name="Path 2922" d="M692.284,525.624H677.159a.557.557,0,0,1,0-1.113h15.125a.557.557,0,0,1,0,1.113Z" transform="translate(-645.904 -494.908)" fill="#e6e6e6"/>
  <path id="Path_2923" data-name="Path 2923" d="M690.045,595.79H677.159a.557.557,0,0,1,0-1.113h12.886a.557.557,0,0,1,0,1.113Z" transform="translate(-645.904 -560.202)" fill="#e6e6e6"/>
  <path id="Path_2924" data-name="Path 2924" d="M692.284,622.837H677.159a.557.557,0,0,1,0-1.113h15.125a.557.557,0,0,1,0,1.113Z" transform="translate(-645.904 -585.372)" fill="#e6e6e6"/>
  <ellipse id="Ellipse_262" data-name="Ellipse 262" cx="2.302" cy="2.36" rx="2.302" ry="2.36" transform="translate(23.852 26.84)" fill="#e6e6e6"/>
  <ellipse id="Ellipse_263" data-name="Ellipse 263" cx="2.302" cy="2.36" rx="2.302" ry="2.36" transform="translate(23.852 33.643)" fill="#e6e6e6"/>
  <path id="Path_2925" data-name="Path 2925" d="M690.045,693.79H677.159a.557.557,0,0,1,0-1.113h12.886a.557.557,0,0,1,0,1.113Z" transform="translate(-645.904 -651.399)" fill="#e6e6e6"/>
  <path id="Path_2926" data-name="Path 2926" d="M692.284,720.837H677.159a.557.557,0,0,1,0-1.113h15.125a.557.557,0,0,1,0,1.113Z" transform="translate(-645.904 -676.569)" fill="#e6e6e6"/>
  <ellipse id="Ellipse_264" data-name="Ellipse 264" cx="2.302" cy="2.36" rx="2.302" ry="2.36" transform="translate(23.852 40.446)" fill="#e6e6e6"/>
</svg>
