<svg xmlns="http://www.w3.org/2000/svg" width="13.938" height="15.929" viewBox="0 0 13.938 15.929">
  <path id="Icon_awesome-building" data-name="Icon awesome-building" d="M13.564,14.933h-.622V.747A.747.747,0,0,0,12.2,0H1.742A.747.747,0,0,0,1,.747V14.933H.373A.373.373,0,0,0,0,15.306v.622H13.938v-.622A.373.373,0,0,0,13.564,14.933ZM3.982,2.364a.373.373,0,0,1,.373-.373H5.6a.373.373,0,0,1,.373.373V3.609a.373.373,0,0,1-.373.373H4.355a.373.373,0,0,1-.373-.373Zm0,2.987a.373.373,0,0,1,.373-.373H5.6a.373.373,0,0,1,.373.373V6.6a.373.373,0,0,1-.373.373H4.355A.373.373,0,0,1,3.982,6.6ZM5.6,9.955H4.355a.373.373,0,0,1-.373-.373V8.338a.373.373,0,0,1,.373-.373H5.6a.373.373,0,0,1,.373.373V9.582A.373.373,0,0,1,5.6,9.955Zm2.364,4.978H5.973V12.32a.373.373,0,0,1,.373-.373H7.591a.373.373,0,0,1,.373.373ZM9.955,9.582a.373.373,0,0,1-.373.373H8.338a.373.373,0,0,1-.373-.373V8.338a.373.373,0,0,1,.373-.373H9.582a.373.373,0,0,1,.373.373Zm0-2.987a.373.373,0,0,1-.373.373H8.338A.373.373,0,0,1,7.964,6.6V5.351a.373.373,0,0,1,.373-.373H9.582a.373.373,0,0,1,.373.373Zm0-2.987a.373.373,0,0,1-.373.373H8.338a.373.373,0,0,1-.373-.373V2.364a.373.373,0,0,1,.373-.373H9.582a.373.373,0,0,1,.373.373Z" fill="#fff"/>
</svg>
