<svg xmlns="http://www.w3.org/2000/svg" width="22.112" height="14.741" viewBox="0 0 22.112 14.741">
  <path id="Icon_awesome-folder-open" data-name="Icon awesome-folder-open" d="M21.985,13.256,19.2,18.022a2.457,2.457,0,0,1-2.122,1.219H1.728a.921.921,0,0,1-.8-1.386l2.78-4.766a2.457,2.457,0,0,1,2.122-1.219H21.189a.921.921,0,0,1,.8,1.386ZM5.835,10.642H18.427V8.8a1.843,1.843,0,0,0-1.843-1.843H10.442L7.985,4.5H1.843A1.843,1.843,0,0,0,0,6.343V17.016l2.652-4.546A3.7,3.7,0,0,1,5.835,10.642Z" transform="translate(0 -4.5)" fill="#6c727b"/>
</svg>
