<svg xmlns="http://www.w3.org/2000/svg" width="14.348" height="16.74" viewBox="0 0 14.348 16.74">
  <g id="file-earmark-text-fill" transform="translate(-4.5 -2.25)">
    <path id="Path_2868" data-name="Path 2868" d="M4.5,4.641A2.391,2.391,0,0,1,6.891,2.25H13.22a1.2,1.2,0,0,1,.846.35L18.5,7.033a1.2,1.2,0,0,1,.35.845V16.6a2.391,2.391,0,0,1-2.391,2.391H6.891A2.391,2.391,0,0,1,4.5,16.6Zm8.37,2.391V3.446l4.783,4.783H14.066A1.2,1.2,0,0,1,12.87,7.033ZM7.489,10.62a.6.6,0,0,0,0,1.2h8.37a.6.6,0,0,0,0-1.2Zm-.6,2.989a.6.6,0,0,1,.6-.6h8.37a.6.6,0,0,1,0,1.2H7.489A.6.6,0,0,1,6.891,13.609Zm0,2.391a.6.6,0,0,1,.6-.6h4.783a.6.6,0,1,1,0,1.2H7.489A.6.6,0,0,1,6.891,16Z" transform="translate(0 0)" fill-rule="evenodd"/>
  </g>
</svg>
