<svg xmlns="http://www.w3.org/2000/svg" width="15.497" height="13.28" viewBox="0 0 15.497 13.28">
  <path id="Icon_ionic-md-eye-off" data-name="Icon ionic-md-eye-off" d="M10,7.294a3.513,3.513,0,0,1,3.524,3.5,3.363,3.363,0,0,1-.252,1.28l2.058,2.04a8.268,8.268,0,0,0,2.417-3.32A8.346,8.346,0,0,0,7.189,6.036L8.71,7.547A3.484,3.484,0,0,1,10,7.294ZM2.956,5.389,4.564,6.983l.325.322A8.228,8.228,0,0,0,2.25,10.791a8.358,8.358,0,0,0,10.835,4.655l.3.294,2.065,2.04.9-.889L3.848,4.5ZM6.85,9.252l1.093,1.082a1.981,1.981,0,0,0-.055.453A2.1,2.1,0,0,0,10,12.883a1.988,1.988,0,0,0,.457-.055L11.55,13.91a3.506,3.506,0,0,1-5.073-3.126A3.455,3.455,0,0,1,6.85,9.252Zm3.036-.543,2.22,2.2.014-.111a2.1,2.1,0,0,0-2.113-2.1Z" transform="translate(-2.25 -4.5)" fill="#15111e"/>
</svg>
