<svg xmlns="http://www.w3.org/2000/svg" width="109.609" height="72.843" viewBox="0 0 109.609 72.843">
  <g id="undraw_forgot_password_re_hxwm" transform="translate(0 0)">
    <path id="Path_3022" data-name="Path 3022" d="M431.365,410.691c3.756-6.608,10.922-11.681,18.507-11.193a35.02,35.02,0,0,0-9.21,22.209c-.125,3.185.069,6.741-2.046,9.126a7.829,7.829,0,0,1-5.305,2.354,23.249,23.249,0,0,1-5.906-.562l-.473.145C426.749,425.172,427.608,417.3,431.365,410.691Z" transform="translate(-392.048 -368.77)" fill="#f0f0f0"/>
    <path id="Path_3023" data-name="Path 3023" d="M449.855,398.565a29.933,29.933,0,0,0-13.328,12.709,12.892,12.892,0,0,0-1.411,3.784,7.393,7.393,0,0,0,.385,3.872,15.3,15.3,0,0,1,1.1,3.535,4.527,4.527,0,0,1-1.212,3.5,11.761,11.761,0,0,1-3.9,2.592,11.548,11.548,0,0,0-4.329,2.883c-.135.168-.388-.051-.254-.219,1.937-2.418,5.252-2.872,7.552-4.82a4.584,4.584,0,0,0,1.827-3.6,11.871,11.871,0,0,0-1.053-3.61,7.889,7.889,0,0,1-.517-3.772,11.916,11.916,0,0,1,1.26-3.824,29.04,29.04,0,0,1,5.34-7.339,30.462,30.462,0,0,1,8.423-6.01c.194-.093.3.224.108.317Z" transform="translate(-392.02 -367.677)" fill="#fff"/>
    <path id="Path_3024" data-name="Path 3024" d="M503.965,451.359a4.491,4.491,0,0,1-1.355-5.655c.1-.192.4-.049.3.144a4.158,4.158,0,0,0,1.271,5.258C504.358,451.232,504.138,451.485,503.965,451.359Z" transform="translate(-458.597 -409.6)" fill="#fff"/>
    <path id="Path_3025" data-name="Path 3025" d="M498.084,548.567a8.656,8.656,0,0,0,5.48-3.124c.135-.168.389.051.254.219a9,9,0,0,1-5.709,3.239c-.214.031-.237-.3-.025-.334Z" transform="translate(-454.892 -497.874)" fill="#fff"/>
    <path id="Path_3026" data-name="Path 3026" d="M572.8,432.375a2.542,2.542,0,0,0,2.272.81c.213-.033.236.3.025.334a2.848,2.848,0,0,1-2.515-.891.173.173,0,0,1-.017-.236.168.168,0,0,1,.236-.017Z" transform="translate(-520.884 -397.851)" fill="#fff"/>
    <path id="Path_3027" data-name="Path 3027" d="M462.717,548.687c-.133.025-.265.049-.4.076a33.487,33.487,0,0,0-5.234,1.447c-.132.046-.266.095-.4.145a35.293,35.293,0,0,0-11.1,6.755,34.266,34.266,0,0,0-3.6,3.767c-1.521,1.858-3.021,3.993-5.008,5.2a5.879,5.879,0,0,1-.64.347L424.9,561.68c-.021-.024-.042-.045-.063-.069l-.466-.169c.052-.073.107-.148.159-.222.03-.043.062-.084.092-.127s.042-.056.059-.083l.02-.026c.017-.027.036-.049.052-.073q.463-.63.937-1.255s0,0,0,0a50.391,50.391,0,0,1,8.183-8.659c.092-.075.186-.153.283-.225a32.712,32.712,0,0,1,4.421-2.99,28.92,28.92,0,0,1,2.622-1.3,24.044,24.044,0,0,1,7.284-1.858,19.091,19.091,0,0,1,13.94,3.82C462.524,548.524,462.62,548.6,462.717,548.687Z" transform="translate(-389.802 -497.113)" fill="#f0f0f0"/>
    <path id="Path_3028" data-name="Path 3028" d="M463.854,574.85a29.932,29.932,0,0,0-18.293,2.124,12.889,12.889,0,0,0-3.4,2.172,7.393,7.393,0,0,0-2.024,3.323,15.3,15.3,0,0,1-1.246,3.488,4.527,4.527,0,0,1-3.074,2.064,11.761,11.761,0,0,1-4.672-.276,11.547,11.547,0,0,0-5.193-.3c-.209.053-.279-.274-.071-.328,3-.764,5.923.869,8.931.7a4.584,4.584,0,0,0,3.625-1.772,11.871,11.871,0,0,0,1.333-3.517,7.889,7.889,0,0,1,1.858-3.323,11.915,11.915,0,0,1,3.309-2.295,29.037,29.037,0,0,1,8.682-2.645,30.463,30.463,0,0,1,10.344.273C464.169,574.574,464.063,574.892,463.854,574.85Z" transform="translate(-391.024 -523.142)" fill="#fff"/>
    <path id="Path_3029" data-name="Path 3029" d="M611.753,550.933a4.491,4.491,0,0,1,2.323-5.331c.194-.094.349.2.155.3a4.158,4.158,0,0,0-2.15,4.963C612.144,551.068,611.816,551.138,611.753,550.933Z" transform="translate(-555.424 -498.051)" fill="#fff"/>
    <path id="Path_3030" data-name="Path 3030" d="M549.472,642.38a8.656,8.656,0,0,0,6.256.805c.209-.053.28.275.071.327a9,9,0,0,1-6.509-.851C549.1,642.558,549.284,642.277,549.472,642.38Z" transform="translate(-500.258 -583.674)" fill="#fff"/>
    <path id="Path_3031" data-name="Path 3031" d="M693.86,575.061a2.542,2.542,0,0,0,1.326,2.015c.19.1.008.383-.182.281a2.848,2.848,0,0,1-1.472-2.225.173.173,0,0,1,.128-.2A.168.168,0,0,1,693.86,575.061Z" transform="translate(-627.948 -524.015)" fill="#fff"/>
    <path id="Path_3032" data-name="Path 3032" d="M175.493,495.719c-1.6-7.751-3.607-10.335-3.607-10.335l-.765-.594-.921-.715,0-.092-.218-.074-.051-.04-.084-.065-.014.015-.029.03-4.166-1.416-5.285-1.8-2.447-3.181a4.233,4.233,0,0,0-3.386-1.652l-7.816.058a4.233,4.233,0,0,0-2.847,1.129l-5.137,4.765-8,3.823-.014-.013-.084.06-1.237.591.051.266-.766.552s-2,2.4-3.607,9.617a68.52,68.52,0,0,0-.681,10.623,1.852,1.852,0,0,0,1.851,1.879h48.091a1.852,1.852,0,0,0,1.851-1.877A80.035,80.035,0,0,0,175.493,495.719Z" transform="translate(-124.382 -436.313)" fill="#3f3d56"/>
    <path id="Path_3033" data-name="Path 3033" d="M567.389,191.732a6.272,6.272,0,1,0,0,12.544H614.13a6.272,6.272,0,1,0,0-12.544Z" transform="translate(-510.793 -184.973)" fill="#e5e5e5"/>
    <path id="Path_3034" data-name="Path 3034" d="M577.136,202.747a5,5,0,0,0,0,10.005h46.741a5,5,0,1,0,0-10.005Z" transform="translate(-520.539 -194.719)" fill="#fff"/>
    <circle id="ab6171fa-7d69-4734-b81c-8dff60f9761b" cx="10.239" cy="10.239" r="10.239" transform="translate(17.222 16.077)" fill="#9e616a"/>
    <path id="Path_3035" data-name="Path 3035" d="M338.967,443.747l-.131-.29.05,0Z" transform="translate(-314.125 -407.692)" fill="#2f2e41"/>
    <path id="Path_3036" data-name="Path 3036" d="M240.561,239.372a2.85,2.85,0,0,1,1.785-.772c.662.021,1.334.619,1.2,1.267a10.522,10.522,0,0,1,12.663-4.748c1.646.581,3.259,1.742,3.637,3.446a3.1,3.1,0,0,0,.391,1.272,1.452,1.452,0,0,0,1.545.392l.016,0a.484.484,0,0,1,.585.683l-.466.868a3.731,3.731,0,0,0,1.778-.038.483.483,0,0,1,.513.752,8.426,8.426,0,0,1-6.718,3.453c-1.86-.011-3.74-.653-5.551-.225a4.822,4.822,0,0,0-3.243,6.769,1.572,1.572,0,0,0-2.2.132,3.018,3.018,0,0,0-.659,2.309,10.714,10.714,0,0,0,1.1,3.6,10.752,10.752,0,0,1-6.373-19.153Z" transform="translate(-223.623 -222.829)" fill="#2f2e41"/>
    <path id="Path_3037" data-name="Path 3037" d="M87.464,495.253l2.872,15.626,1.723.15Z" transform="translate(-77.385 -438.186)" opacity="0.2"/>
    <path id="Path_3038" data-name="Path 3038" d="M326.723,485.026l-2.872,16.793-1.723.161Z" transform="translate(-285.01 -429.138)" opacity="0.2"/>
    <path id="Path_3039" data-name="Path 3039" d="M248.31,144.353a1.021,1.021,0,0,1-1.366-.6,1.037,1.037,0,0,1,.543-1.414,1.089,1.089,0,0,1,.823,2.013Zm-1.055-3.167-.438.183a.472.472,0,0,1-.6-.22l-.022-.042a3.83,3.83,0,0,1-.159-3.067,3.579,3.579,0,0,0,.2-2.488,1.324,1.324,0,0,0-1.916-.673,1.628,1.628,0,0,0-.727.412.624.624,0,0,1-.452.184.6.6,0,0,1-.432-.189.616.616,0,0,1,0-.841,4.786,4.786,0,0,1,1.618-1.111,2.314,2.314,0,0,1,3.318,1.436,4.47,4.47,0,0,1-.2,3.231,3.208,3.208,0,0,0,.063,2.555.47.47,0,0,1-.245.633Z" transform="translate(-228.923 -133.069)" fill="#ff543e"/>
    <path id="Path_3040" data-name="Path 3040" d="M632.022,268.682h-9.3a.224.224,0,0,1,0-.448h9.3a.224.224,0,0,1,0,.448Z" transform="translate(-565.101 -252.66)" fill="#ff543e"/>
    <path id="Path_3041" data-name="Path 3041" d="M734.4,269.33h-9.3a.224.224,0,1,1,0-.448h9.3a.224.224,0,1,1,0,.448Z" transform="translate(-655.685 -253.233)" fill="#ff543e"/>
    <path id="Path_3042" data-name="Path 3042" d="M836.785,269.978h-9.3a.224.224,0,0,1,0-.448h9.3a.224.224,0,1,1,0,.448Z" transform="translate(-746.27 -253.806)" fill="#ff543e"/>
    <path id="Path_3043" data-name="Path 3043" d="M939.163,270.626h-9.3a.224.224,0,1,1,0-.448h9.3a.224.224,0,0,1,0,.448Z" transform="translate(-836.851 -254.38)" fill="#ff543e"/>
    <circle id="Ellipse_294" data-name="Ellipse 294" cx="1.728" cy="1.728" r="1.728" transform="translate(60.522 10.504)" fill="#ff543e"/>
    <circle id="Ellipse_295" data-name="Ellipse 295" cx="1.728" cy="1.728" r="1.728" transform="translate(72.39 10.504)" fill="#ff543e"/>
    <circle id="Ellipse_296" data-name="Ellipse 296" cx="1.728" cy="1.728" r="1.728" transform="translate(84.259 10.504)" fill="#ff543e"/>
    <circle id="Ellipse_297" data-name="Ellipse 297" cx="1.728" cy="1.728" r="1.728" transform="translate(96.127 10.504)" fill="#ff543e"/>
  </g>
</svg>
