<svg xmlns="http://www.w3.org/2000/svg" width="17.438" height="18.084" viewBox="0 0 17.438 18.084">
  <g id="list" transform="translate(-2.813 -2.25)">
    <path id="Path_2976" data-name="Path 2976" d="M14.625,5.625H25.282V6.917H14.625Z" transform="translate(-5.031 -1.437)" fill="#fff"/>
    <path id="Path_2977" data-name="Path 2977" d="M2.813,4.833A2.583,2.583,0,1,0,5.4,2.25,2.583,2.583,0,0,0,2.813,4.833ZM5.4,3.542A1.292,1.292,0,1,1,4.1,4.833,1.292,1.292,0,0,1,5.4,3.542Z" fill="#fff"/>
    <path id="Path_2978" data-name="Path 2978" d="M14.625,16.875H25.282v1.292H14.625Z" transform="translate(-5.031 -6.229)" fill="#fff"/>
    <path id="Path_2979" data-name="Path 2979" d="M5.4,18.667a2.583,2.583,0,1,0-2.583-2.583A2.583,2.583,0,0,0,5.4,18.667Zm0-3.875A1.292,1.292,0,1,1,4.1,16.083,1.292,1.292,0,0,1,5.4,14.792Z" transform="translate(0 -4.791)" fill="#fff"/>
    <path id="Path_2980" data-name="Path 2980" d="M14.625,28.125H25.282v1.292H14.625Z" transform="translate(-5.031 -11.02)" fill="#fff"/>
    <path id="Path_2981" data-name="Path 2981" d="M5.4,29.917a2.583,2.583,0,1,0-2.583-2.583A2.583,2.583,0,0,0,5.4,29.917Zm0-3.875A1.292,1.292,0,1,1,4.1,27.333,1.292,1.292,0,0,1,5.4,26.042Z" transform="translate(0 -9.583)" fill="#fff"/>
  </g>
</svg>
