<svg xmlns="http://www.w3.org/2000/svg" width="12" height="14.625" viewBox="0 0 12 14.625">
  <g id="Icon_feather-clipboard" data-name="Icon feather-clipboard" transform="translate(-5.25 -2.25)">
    <path id="Path_25" data-name="Path 25" d="M13.875,6h1.313A1.313,1.313,0,0,1,16.5,7.313V16.5a1.313,1.313,0,0,1-1.312,1.313H7.313A1.313,1.313,0,0,1,6,16.5V7.313A1.313,1.313,0,0,1,7.313,6H8.625" transform="translate(0 -1.688)" fill="none" stroke="#fff" stroke-linecap="round" stroke-linejoin="round" stroke-width="1.5"/>
    <path id="Path_26" data-name="Path 26" d="M12.656,3h3.938a.656.656,0,0,1,.656.656V4.969a.656.656,0,0,1-.656.656H12.656A.656.656,0,0,1,12,4.969V3.656A.656.656,0,0,1,12.656,3Z" transform="translate(-3.375)" fill="none" stroke="#fff" stroke-linecap="round" stroke-linejoin="round" stroke-width="1.5"/>
  </g>
</svg>
