<svg xmlns="http://www.w3.org/2000/svg" width="10.236" height="10.236" viewBox="0 0 10.236 10.236">
  <g id="Icon_ionic-ios-close-circle-outline" data-name="Icon ionic-ios-close-circle-outline" transform="translate(-3.375 -3.375)" style="mix-blend-mode: normal;isolation: isolate">
    <path id="Path_2995" data-name="Path 2995" d="M16.186,15.627l-1.3-1.3,1.3-1.3a.393.393,0,1,0-.556-.556l-1.3,1.3-1.3-1.3a.393.393,0,0,0-.556.556l1.3,1.3-1.3,1.3a.38.38,0,0,0,0,.556.391.391,0,0,0,.556,0l1.3-1.3,1.3,1.3a.4.4,0,0,0,.556,0A.391.391,0,0,0,16.186,15.627Z" transform="translate(-5.84 -5.837)" fill="#f54848"/>
    <path id="Path_2996" data-name="Path 2996" d="M8.493,4.064a4.427,4.427,0,1,1-3.132,1.3,4.4,4.4,0,0,1,3.132-1.3m0-.689a5.118,5.118,0,1,0,5.118,5.118A5.117,5.117,0,0,0,8.493,3.375Z" fill="#f54848"/>
  </g>
</svg>
