<svg xmlns="http://www.w3.org/2000/svg" width="20.437" height="20.437" viewBox="0 0 20.437 20.437">
  <g id="select-r" transform="translate(-1.5 -1.5)">
    <path id="Path_2973" data-name="Path 2973" d="M12.95,14.031l-1.315-1.314,3.942-3.942,3.942,3.942L18.2,14.03,15.577,11.4,12.95,14.031Z" transform="translate(-3.859 -2.77)" fill="#6c727b"/>
    <path id="Path_2974" data-name="Path 2974" d="M12.95,18.738l-1.315,1.314,3.942,3.942,3.942-3.942L18.2,18.739l-2.627,2.626Z" transform="translate(-3.859 -6.563)" fill="#6c727b"/>
    <path id="Path_2975" data-name="Path 2975" d="M1.5,5.216A3.716,3.716,0,0,1,5.216,1.5H18.221a3.716,3.716,0,0,1,3.716,3.716V18.221a3.716,3.716,0,0,1-3.716,3.716H5.216A3.716,3.716,0,0,1,1.5,18.221ZM5.216,3.358H18.221a1.858,1.858,0,0,1,1.858,1.858V18.221a1.858,1.858,0,0,1-1.858,1.858H5.216a1.858,1.858,0,0,1-1.858-1.858V5.216A1.858,1.858,0,0,1,5.216,3.358Z" transform="translate(0 0)" fill="#6c727b" fill-rule="evenodd"/>
  </g>
</svg>
