<svg xmlns="http://www.w3.org/2000/svg" width="14.231" height="14.23" viewBox="0 0 14.231 14.23">
  <path id="Icon_ionic-md-settings" data-name="Icon ionic-md-settings" d="M15.894,11.2a4.449,4.449,0,0,0,.036-.712c0-.249-.036-.462-.036-.712L17.422,8.6a.327.327,0,0,0,.073-.462L16.039,5.687a.354.354,0,0,0-.437-.142l-1.819.712a5.3,5.3,0,0,0-1.237-.712L12.291,3.66a.39.39,0,0,0-.364-.285H9.016a.39.39,0,0,0-.364.285L8.362,5.545a6.162,6.162,0,0,0-1.237.712L5.3,5.545a.341.341,0,0,0-.437.142L3.413,8.142a.43.43,0,0,0,.073.462L5.05,9.779c0,.249-.036.462-.036.712s.036.462.036.712L3.522,12.376a.327.327,0,0,0-.073.462L4.9,15.293a.354.354,0,0,0,.437.142l1.819-.712a5.3,5.3,0,0,0,1.237.712l.291,1.885a.353.353,0,0,0,.364.285h2.911a.39.39,0,0,0,.364-.285l.291-1.885a6.158,6.158,0,0,0,1.237-.712l1.819.712a.341.341,0,0,0,.437-.142l1.456-2.455a.429.429,0,0,0-.073-.462Zm-5.422,1.779a2.491,2.491,0,1,1,2.547-2.49A2.5,2.5,0,0,1,10.472,12.981Z" transform="translate(-3.375 -3.375)" fill="#fff"/>
</svg>
