<svg xmlns="http://www.w3.org/2000/svg" width="12" height="9.75" viewBox="0 0 12 9.75">
  <path id="Icon_awesome-list" data-name="Icon awesome-list" d="M1.875,10.875H.375A.375.375,0,0,0,0,11.25v1.5a.375.375,0,0,0,.375.375h1.5a.375.375,0,0,0,.375-.375v-1.5A.375.375,0,0,0,1.875,10.875Zm0-7.5H.375A.375.375,0,0,0,0,3.75v1.5a.375.375,0,0,0,.375.375h1.5A.375.375,0,0,0,2.25,5.25V3.75A.375.375,0,0,0,1.875,3.375Zm0,3.75H.375A.375.375,0,0,0,0,7.5V9a.375.375,0,0,0,.375.375h1.5A.375.375,0,0,0,2.25,9V7.5A.375.375,0,0,0,1.875,7.125Zm9.75,4.125h-7.5a.375.375,0,0,0-.375.375v.75a.375.375,0,0,0,.375.375h7.5A.375.375,0,0,0,12,12.375v-.75A.375.375,0,0,0,11.625,11.25Zm0-7.5h-7.5a.375.375,0,0,0-.375.375v.75a.375.375,0,0,0,.375.375h7.5A.375.375,0,0,0,12,4.875v-.75A.375.375,0,0,0,11.625,3.75Zm0,3.75h-7.5a.375.375,0,0,0-.375.375v.75A.375.375,0,0,0,4.125,9h7.5A.375.375,0,0,0,12,8.625v-.75A.375.375,0,0,0,11.625,7.5Z" transform="translate(0 -3.375)" fill="#fff"/>
</svg>
