<svg xmlns="http://www.w3.org/2000/svg" width="13.539" height="13.513" viewBox="0 0 13.539 13.513">
  <path id="edit-line" d="M15.4,4.514,12.969,2.067a.858.858,0,0,0-1.211,0L3.13,10.683l-.788,3.4a.854.854,0,0,0,.829,1.037.887.887,0,0,0,.178,0l3.437-.788L15.4,5.724A.858.858,0,0,0,15.4,4.514ZM6.372,13.586l-3.222.676L3.885,11.1,10.34,4.671l2.488,2.488Zm7.011-7.028L10.9,4.07l1.443-1.435,2.446,2.488Z" transform="translate(-2.245 -1.687)" fill="#585858" stroke="#585858" stroke-linecap="round" stroke-linejoin="round" stroke-width="0.15"/>
</svg>
