<svg xmlns="http://www.w3.org/2000/svg" width="271.569" height="177.311" viewBox="0 0 271.569 177.311">
  <g id="undraw_setup_re_y9w8" transform="translate(0 0)">
    <path id="Path_2997" data-name="Path 2997" d="M747.456,689.669l-.338-.5q.75-.505,1.489-1.025l.348.495Q748.211,689.16,747.456,689.669Z" transform="translate(-566.818 -527.428)" fill="#ccc"/>
    <path id="Path_2998" data-name="Path 2998" d="M391.7,603.482l0-.605c1.224-.009,2.461-.043,3.676-.1l.029.6C394.175,603.439,392.929,603.473,391.7,603.482Zm-3.7-.049c-1.229-.042-2.472-.109-3.7-.2l.046-.6c1.216.092,2.451.159,3.672.2Zm11.1-.308-.054-.6c1.214-.109,2.444-.245,3.654-.405l.079.6c-1.219.161-2.456.3-3.679.408Zm-18.478-.248c-1.223-.143-2.457-.314-3.668-.508l.1-.6c1.2.192,2.428.362,3.642.5Zm25.816-.721-.1-.6c1.2-.21,2.415-.449,3.608-.709l.129.591c-1.2.262-2.423.5-3.632.714Zm-33.127-.448c-1.2-.245-2.419-.518-3.612-.813l.145-.587c1.185.293,2.392.565,3.588.808Zm40.359-1.132-.154-.585c1.18-.31,2.369-.65,3.535-1.01l.178.578c-1.174.362-2.372.7-3.56,1.017Zm-47.554-.649c-1.181-.346-2.371-.721-3.538-1.117l.194-.573c1.159.393,2.341.766,3.514,1.109Zm54.628-1.533-.2-.57c1.15-.408,2.307-.847,3.438-1.3l.226.561c-1.14.459-2.3.9-3.462,1.313Zm-61.654-.849c-1.149-.444-2.3-.919-3.43-1.41l.242-.555c1.119.488,2.265.959,3.406,1.4Zm68.52-1.921-.25-.551c1.113-.5,2.229-1.039,3.317-1.588l.273.54c-1.1.553-2.22,1.091-3.34,1.6Zm-75.317-1.043c-1.106-.539-2.216-1.108-3.3-1.693l.288-.532c1.075.58,2.177,1.146,3.276,1.681Zm81.927-2.293-.3-.528c1.066-.6,2.134-1.221,3.173-1.86l.317.516C436.36,591.059,435.285,591.689,434.212,592.288Zm-88.448-1.229c-1.056-.629-2.113-1.289-3.144-1.962l.331-.506c1.024.669,2.074,1.324,3.122,1.948Zm-6.2-4.053c-1-.714-2-1.46-2.969-2.216l.372-.477c.964.751,1.956,1.492,2.948,2.2Zm-5.842-4.554c-.938-.8-1.871-1.622-2.773-2.455l.41-.445c.9.827,1.823,1.647,2.755,2.438Zm-5.442-5.022c-.868-.87-1.729-1.77-2.56-2.675l.446-.409c.825.9,1.68,1.793,2.542,2.657Zm-5.006-5.454c-.791-.938-1.575-1.906-2.328-2.878l.478-.371c.748.965,1.526,1.927,2.312,2.858Zm-4.534-5.849c-.712-1-1.411-2.031-2.08-3.06l.507-.33c.664,1.022,1.359,2.045,2.066,3.039Zm-4.031-6.2c-.626-1.057-1.237-2.141-1.817-3.222l.533-.286c.576,1.074,1.184,2.15,1.8,3.2Zm-3.5-6.516c-.535-1.1-1.053-2.235-1.541-3.361l.555-.241c.484,1.118,1,2.241,1.53,3.338Zm-2.939-6.782c-.441-1.147-.863-2.317-1.254-3.48l.573-.193c.389,1.155.808,2.317,1.246,3.456Z" transform="translate(-259.883 -426.171)" fill="#ccc"/>
    <path id="Path_2999" data-name="Path 2999" d="M302.194,527.4q-.254-.874-.49-1.755l.585-.157q.234.875.486,1.743Z" transform="translate(-256.179 -413.993)" fill="#ccc"/>
    <path id="Path_3000" data-name="Path 3000" d="M873.438,413.07q-.1-.9-.219-1.8l.6-.079q.119.9.22,1.808Z" transform="translate(-654.764 -334.281)" fill="#ccc"/>
    <path id="Path_3001" data-name="Path 3001" d="M846.813,474.271l-.544-.266c.52-1.062,1.025-2.15,1.5-3.233l.554.244C847.845,472.107,847.337,473.2,846.813,474.271Zm2.89-6.569-.563-.221c.432-1.1.847-2.226,1.234-3.344l.572.2c-.389,1.126-.807,2.259-1.242,3.368Zm2.346-6.783-.58-.174c.341-1.134.663-2.29.957-3.434l.586.151c-.3,1.152-.62,2.316-.964,3.458Zm1.785-6.952-.592-.126c.247-1.157.474-2.335.674-3.5l.6.1c-.2,1.175-.43,2.36-.679,3.525Zm1.214-7.075-.6-.078c.153-1.171.283-2.364.389-3.544l.6.054c-.106,1.189-.238,2.389-.391,3.569Zm.638-7.15-.6-.03c.058-1.18.092-2.379.1-3.564l.605.005c-.011,1.194-.046,2.4-.1,3.589Zm-.54-7.16c-.036-1.183-.1-2.381-.181-3.56l.6-.043c.084,1.187.145,2.393.182,3.584Z" transform="translate(-635.968 -346.685)" fill="#ccc"/>
    <path id="Path_3002" data-name="Path 3002" d="M838.523,590.1l-.526-.3q.446-.786.876-1.581l.532.288Q838.972,589.312,838.523,590.1Z" transform="translate(-630.199 -457.744)" fill="#ccc"/>
    <path id="Path_3003" data-name="Path 3003" d="M320.664,320.562l-.546-.26q.392-.823.8-1.636l.541.272Q321.054,319.745,320.664,320.562Z" transform="translate(-269.021 -269.749)" fill="#ccc"/>
    <path id="Path_3004" data-name="Path 3004" d="M328.916,202.994l-.529-.294c.587-1.057,1.2-2.116,1.832-3.147l.517.315C330.111,200.892,329.5,201.944,328.916,202.994Zm152.521-2.7c-.618-1.026-1.267-2.055-1.928-3.058l.505-.333c.666,1.01,1.319,2.045,1.942,3.079Zm-148.755-3.474-.5-.336c.671-1.005,1.373-2.01,2.085-2.987l.489.356c-.707.97-1.4,1.969-2.071,2.967Zm144.774-2.56c-.7-.974-1.432-1.946-2.172-2.89l.476-.374c.745.95,1.481,1.929,2.187,2.91Zm-140.513-3.286-.474-.376c.752-.947,1.533-1.891,2.322-2.806l.458.4c-.784.909-1.559,1.846-2.306,2.787ZM473,188.57c-.779-.914-1.587-1.824-2.4-2.7l.444-.411c.82.886,1.633,1.8,2.418,2.722ZM341.668,185.5l-.442-.414c.825-.882,1.681-1.759,2.542-2.607l.425.431C343.337,183.749,342.488,184.62,341.668,185.5Zm126.416-2.233c-.85-.847-1.73-1.687-2.615-2.5l.409-.446c.891.817,1.776,1.664,2.632,2.516Zm-121.262-2.841-.407-.448c.895-.811,1.819-1.616,2.746-2.391l.388.465C348.628,178.817,347.71,179.616,346.822,180.422Zm115.933-2.049c-.917-.775-1.863-1.541-2.81-2.278l.371-.478c.954.742,1.906,1.513,2.83,2.293Zm-110.383-2.586-.369-.48c.958-.735,1.944-1.462,2.932-2.158l.349.495c-.982.692-1.961,1.413-2.912,2.143Zm104.672-1.853c-.978-.7-1.983-1.384-2.988-2.041l.331-.507c1.012.661,2.024,1.352,3.008,2.055Zm-98.764-2.312-.328-.509c1.015-.655,2.057-1.3,3.1-1.91l.307.522C360.323,170.334,359.288,170.972,358.28,171.622Zm92.706-1.645c-1.031-.615-2.089-1.217-3.146-1.789l.288-.532c1.064.576,2.13,1.182,3.167,1.8Zm-86.477-2.022-.285-.534c1.066-.57,2.157-1.124,3.244-1.649l.263.545c-1.079.521-2.163,1.072-3.222,1.638Zm80.114-1.425c-1.082-.529-2.186-1.042-3.283-1.524l.243-.554c1.1.485,2.217,1,3.306,1.534Zm-73.607-1.716-.24-.556c1.108-.479,2.241-.942,3.368-1.376l.217.565c-1.12.431-2.245.89-3.345,1.366Zm66.98-1.2c-1.119-.437-2.262-.857-3.4-1.248l.2-.572c1.145.394,2.3.816,3.422,1.256Zm-60.237-1.4-.194-.573c1.145-.387,2.312-.754,3.469-1.093l.17.581c-1.149.336-2.308.7-3.445,1.085Zm53.39-.956c-1.152-.343-2.327-.667-3.492-.962l.149-.587c1.173.3,2.356.623,3.516.969Zm-46.459-1.071-.146-.587c1.172-.291,2.365-.561,3.546-.8l.121.593c-1.172.24-2.357.508-3.521.8Zm39.438-.709c-1.171-.246-2.367-.471-3.554-.669l.1-.6c1.2.2,2.4.427,3.578.674Zm-32.359-.74-.1-.6c1.193-.193,2.406-.364,3.606-.508l.072.6c-1.191.143-2.4.313-3.581.5ZM417,158.294c-1.188-.149-2.4-.275-3.6-.375l.05-.6c1.207.1,2.425.228,3.621.378Zm-18.048-.41-.048-.6c1.2-.095,2.427-.166,3.635-.212l.023.6c-1.2.046-2.414.116-3.61.211Zm10.842-.193c-1.2-.051-2.415-.079-3.616-.082V157c1.209,0,2.433.031,3.64.082Z" transform="translate(-274.789 -157.004)" fill="#ccc"/>
    <path id="Path_3005" data-name="Path 3005" d="M841.054,311.44q-.418-.8-.852-1.6l.531-.29q.437.8.858,1.607Z" transform="translate(-631.737 -263.395)" fill="#ccc"/>
    <path id="Path_3006" data-name="Path 3006" d="M286.418,353h-5.6v47.354a4.544,4.544,0,0,1-4.539,4.539H184.75v4.085a5.151,5.151,0,0,0,5.144,5.144h96.524a5.151,5.151,0,0,0,5.144-5.144V358.147A5.151,5.151,0,0,0,286.418,353Z" transform="translate(-174.613 -293.697)" fill="#f2f2f2"/>
    <path id="Path_3007" data-name="Path 3007" d="M252.918,324.5H156.394a5.151,5.151,0,0,0-5.144,5.144v50.834a5.151,5.151,0,0,0,5.144,5.144h96.524a5.151,5.151,0,0,0,5.144-5.144V329.647A5.151,5.151,0,0,0,252.918,324.5Zm4.539,55.978a4.544,4.544,0,0,1-4.539,4.539H156.394a4.544,4.544,0,0,1-4.539-4.539V329.647a4.544,4.544,0,0,1,4.539-4.539h96.524a4.544,4.544,0,0,1,4.539,4.539Z" transform="translate(-151.25 -273.821)" fill="#3f3d56"/>
    <path id="Path_3008" data-name="Path 3008" d="M379.5,437.344H345.612a2.421,2.421,0,0,1,0-4.841H379.5a2.421,2.421,0,0,1,0,4.841Z" transform="translate(-285.113 -349.142)" fill="#ccc"/>
    <path id="Path_3009" data-name="Path 3009" d="M358.32,403.344H345.612a2.421,2.421,0,0,1,0-4.841H358.32a2.421,2.421,0,0,1,0,4.841Z" transform="translate(-285.113 -325.43)" fill="#ccc"/>
    <path id="Path_3010" data-name="Path 3010" d="M223.685,397.839H192.822a2.575,2.575,0,0,1-2.572-2.572V361.075a2.575,2.575,0,0,1,2.572-2.572h30.864a2.575,2.575,0,0,1,2.572,2.572v34.192a2.575,2.575,0,0,1-2.572,2.572Z" transform="translate(-178.449 -297.533)" fill="#ff543e"/>
    <path id="Path_3011" data-name="Path 3011" d="M244.746,448.814a3.789,3.789,0,0,1-2.18-.519,1.674,1.674,0,0,1-.659-1.25,1.126,1.126,0,0,1,.383-.925,1.453,1.453,0,0,1,1.375-.2l-.556-4.06.408-.056.653,4.773-.341-.156a1.247,1.247,0,0,0-1.274.011.723.723,0,0,0-.237.6,1.265,1.265,0,0,0,.49.932,3.405,3.405,0,0,0,1.948.44Z" transform="translate(-214.474 -355.63)" fill="#3f3d56"/>
    <rect id="Rectangle_1732" data-name="Rectangle 1732" width="2.217" height="0.412" transform="translate(24.401 86.582)" fill="#3f3d56"/>
    <rect id="Rectangle_1733" data-name="Rectangle 1733" width="2.217" height="0.412" transform="translate(31.399 86.582)" fill="#3f3d56"/>
    <path id="Path_3012" data-name="Path 3012" d="M210.049,398.31a4.044,4.044,0,0,1-3.32-3.65,5.935,5.935,0,0,1,2.672-5.185,11.406,11.406,0,0,1,5.955-1.829,16.366,16.366,0,0,1,11.186,3.687,10.321,10.321,0,0,1,3.565,4.935,4.78,4.78,0,0,1-1.3,4.9,3.289,3.289,0,0,1-2.523.777,6.272,6.272,0,0,1-2.937-1.306c-1.677-1.219-3.053-2.918-5.1-3.555a3.962,3.962,0,0,0-4.357,1.3,2.465,2.465,0,0,0-.394,1.033.32.32,0,0,0,.216.38.311.311,0,0,0,.38-.216c.24-1.706,2.338-2.343,3.81-1.953,2.146.568,3.587,2.484,5.349,3.7a6.5,6.5,0,0,0,3.115,1.243,3.868,3.868,0,0,0,2.718-.835,5.285,5.285,0,0,0,1.747-5.071,9.954,9.954,0,0,0-3.392-5.37,16.97,16.97,0,0,0-11.6-4.284,12.688,12.688,0,0,0-6.322,1.65,6.9,6.9,0,0,0-3.408,5.152,4.864,4.864,0,0,0,2.622,4.744,4.106,4.106,0,0,0,1.316.371c.394.045.391-.573,0-.617Z" transform="translate(-189.5 -317.412)" fill="#3f3d56"/>
    <path id="Path_3013" data-name="Path 3013" d="M727.071,618h-4.859v15.831a5.151,5.151,0,0,1-5.144,5.144H595.75V641.3a5.754,5.754,0,0,0,5.749,5.749H727.071a5.754,5.754,0,0,0,5.749-5.749v-17.55A5.754,5.754,0,0,0,727.071,618Z" transform="translate(-461.252 -478.512)" fill="#f2f2f2"/>
    <path id="Path_3014" data-name="Path 3014" d="M694.011,593.323H568.439a5.754,5.754,0,0,0-5.749,5.749v17.55a5.754,5.754,0,0,0,5.749,5.749H694.011a5.754,5.754,0,0,0,5.749-5.749v-17.55a5.754,5.754,0,0,0-5.749-5.749Zm5.144,23.3a5.151,5.151,0,0,1-5.144,5.144H568.439a5.151,5.151,0,0,1-5.144-5.144v-17.55a5.151,5.151,0,0,1,5.144-5.144H694.011a5.151,5.151,0,0,1,5.144,5.144Z" transform="translate(-438.195 -461.3)" fill="#3f3d56"/>
    <path id="Path_3015" data-name="Path 3015" d="M632.2,609.326a9.683,9.683,0,1,0,9.683,9.683A9.683,9.683,0,0,0,632.2,609.326Z" transform="translate(-479.922 -472.461)" fill="#ff543e"/>
    <path id="Path_3016" data-name="Path 3016" d="M782.572,657.167H713.281a2.421,2.421,0,1,1,0-4.841h69.292a2.421,2.421,0,1,1,0,4.841Z" transform="translate(-541.531 -502.45)" fill="#ccc"/>
    <path id="Path_3017" data-name="Path 3017" d="M747.775,623.167H713.281a2.421,2.421,0,1,1,0-4.841h34.495a2.421,2.421,0,0,1,0,4.841Z" transform="translate(-541.531 -478.738)" fill="#ccc"/>
    <path id="Path_395" data-name="Path 395" d="M643.651,635.823a1.154,1.154,0,0,1-.694-.231l-.012-.009-2.614-2a1.162,1.162,0,0,1,1.413-1.844l1.693,1.3,4-5.219a1.161,1.161,0,0,1,1.628-.215h0l-.025.034.026-.034a1.162,1.162,0,0,1,.215,1.628l-4.705,6.136a1.162,1.162,0,0,1-.924.453Z" transform="translate(-492.026 -485.041)" fill="#fff"/>
    <path id="Path_3018" data-name="Path 3018" d="M818.713,333h-.641q.018.2.018.4v17.55a5.151,5.151,0,0,1-5.144,5.144h-60.2v.206c0,.133.006.266.015.4a5.75,5.75,0,0,0,5.734,5.35h60.214a5.754,5.754,0,0,0,5.749-5.749v-17.55A5.754,5.754,0,0,0,818.713,333Z" transform="translate(-570.746 -279.749)" fill="#f2f2f2"/>
    <path id="Path_3019" data-name="Path 3019" d="M805.387,320.673a5.75,5.75,0,0,0-5.734-5.35H739.439a5.754,5.754,0,0,0-5.749,5.749v17.55a5.754,5.754,0,0,0,5.749,5.749h60.214a5.754,5.754,0,0,0,5.749-5.749v-17.55C805.4,320.939,805.4,320.806,805.387,320.673Zm-.59,17.949a5.151,5.151,0,0,1-5.144,5.144H739.439a5.151,5.151,0,0,1-5.144-5.144v-17.55a5.151,5.151,0,0,1,5.144-5.144h60.214a5.149,5.149,0,0,1,5.126,4.744q.018.2.018.4Z" transform="translate(-557.453 -267.418)" fill="#3f3d56"/>
    <path id="Path_3020" data-name="Path 3020" d="M827.265,377.167H797.612a2.421,2.421,0,0,1,0-4.841h29.653a2.421,2.421,0,1,1,0,4.841Z" transform="translate(-600.345 -307.173)" fill="#ccc"/>
    <path id="Path_3021" data-name="Path 3021" d="M818.187,343.167H797.612a2.421,2.421,0,0,1,0-4.841h20.576a2.421,2.421,0,0,1,0,4.841Z" transform="translate(-600.345 -283.461)" fill="#ccc"/>
  </g>
</svg>
